<svg xmlns="http://www.w3.org/2000/svg" version="1.1" xmlns:xlink="http://www.w3.org/1999/xlink" xmlns:svgjs="http://svgjs.dev/svgjs" width="1000" height="750" viewBox="0 0 1000 750"><rect width="1000" height="750" fill="#ffffff"></rect><g transform="matrix(0.834,0,0,0.834,82.49455999133716,115.4193570850203)"><svg viewBox="0 0 396 247" data-background-color="#ffffff" preserveAspectRatio="xMidYMid meet" height="623" width="1000" xmlns="http://www.w3.org/2000/svg" xmlns:xlink="http://www.w3.org/1999/xlink"><g id="tight-bounds" transform="matrix(1,0,0,1,0.23999309763848942,-0.09999999999999432)"><svg viewBox="0 0 395.52 247.2" height="247.2" width="395.52"><g><svg></svg></g><g><svg viewBox="0 0 395.52 247.2" height="247.2" width="395.52"><g><g><path xmlns="http://www.w3.org/2000/svg" d="M178.624 8.292h30.421l-65.345 87.756-29.739 0zM118.434 238.908h-26.823l0-87.756 26.823 0zM1 8.292h31.076l64.662 87.756h-30.217zM259.094 227.263c-16.138-9.465-28.503-23.094-37.095-40.89-5.153-10.591-8.768-22.332-10.846-35.221l27.958 0c3.065 17.256 9.246 31.395 18.544 42.418 13.826 16.487 33.388 24.73 58.684 24.73 12.867 0 24.643-2.072 35.329-6.215 10.686-4.143 21.59-10.904 32.711-20.281l10.141 20.608c-9.813 9.595-21.372 16.836-34.674 21.72-13.303 4.929-27.914 7.393-43.834 7.393-21.808 0-40.78-4.754-56.918-14.262zM221.999 60.63c8.592-17.664 20.957-31.25 37.095-40.758 16.138-9.465 35.11-14.197 56.918-14.197 15.92 0 30.531 2.464 43.834 7.393 13.303 4.885 24.861 12.125 34.674 21.72l-10.141 20.608c-11.122-9.377-22.026-16.138-32.711-20.281-10.686-4.143-22.462-6.215-35.329-6.215-25.297 0-44.858 8.222-58.684 24.665-9.326 11.085-15.516 25.246-18.572 42.483l-27.979 0c2.07-12.989 5.702-24.795 10.895-35.418z" fill="#31c48d" fill-rule="nonzero" stroke="none" stroke-width="1" stroke-linecap="butt" stroke-linejoin="miter" stroke-miterlimit="10" stroke-dasharray="" stroke-dashoffset="0" font-family="none" font-weight="none" font-size="none" text-anchor="none" style="mix-blend-mode: normal" data-fill-palette-color="tertiary"></path></g></g><g transform="matrix(1,0,0,1,0,102.2723252858958)"><svg viewBox="0 0 395.52 42.65534942820839" height="42.65534942820839" width="395.52"><g><svg viewBox="0 0 395.52 42.65534942820839" height="42.65534942820839" width="395.52"><g><svg viewBox="0 0 395.52 42.65534942820839" height="42.65534942820839" width="395.52"><g><svg viewBox="0 0 395.52 42.65534942820839" height="42.65534942820839" width="395.52"><g><svg viewBox="0 0 395.52 42.65534942820839" height="42.65534942820839" width="395.52"><g><svg viewBox="0 0 395.52 42.65534942820839" height="42.65534942820839" width="395.52"><g transform="matrix(1,0,0,1,0,0)"><svg width="395.52" viewBox="0.5 -24.950000762939453 314.7699890136719 33.95000076293945" height="42.65534942820839" data-palette-color="#31c48d"><path d="M12.95-4.4L21.2-24.3 25.25-24.3 10.85 9 6.7 9 10.8-0.3 0.5-24.3 4.8-24.3 12.95-4.4ZM39.25 0.35Q35.8 0.35 33.17-1.2 30.55-2.75 29.12-5.63 27.7-8.5 27.7-12.3L27.7-12.3Q27.7-16.1 29.12-18.98 30.55-21.85 33.17-23.4 35.8-24.95 39.25-24.95L39.25-24.95Q42.7-24.95 45.35-23.4 48-21.85 49.42-18.98 50.85-16.1 50.85-12.3L50.85-12.3Q50.85-8.5 49.42-5.63 48-2.75 45.35-1.2 42.7 0.35 39.25 0.35L39.25 0.35ZM39.25-3Q42.85-3 44.77-5.38 46.7-7.75 46.7-12.3L46.7-12.3Q46.7-16.75 44.75-19.18 42.8-21.6 39.25-21.6L39.25-21.6Q35.7-21.6 33.75-19.18 31.8-16.75 31.8-12.3L31.8-12.3Q31.8-7.8 33.72-5.4 35.65-3 39.25-3L39.25-3ZM73.34-24.35L77.4-24.35 77.4 0 73.45 0 73.45-4.15Q72.3-1.95 70.22-0.8 68.15 0.35 65.55 0.35L65.55 0.35Q61.2 0.35 59-2.08 56.8-4.5 56.8-9.25L56.8-9.25 56.8-24.35 60.85-24.35 60.85-9.35Q60.85-6.1 62.15-4.58 63.45-3.05 66.25-3.05L66.25-3.05Q69.45-3.05 71.4-5.13 73.34-7.2 73.34-10.6L73.34-10.6 73.34-24.35ZM98.39-24.95L98.74-21.45 96.09-21.2Q92.34-20.85 90.67-18.85 88.99-16.85 88.99-13.9L88.99-13.9 88.99 0 84.94 0 84.94-24.35 88.89-24.35 88.89-20.1Q90.94-24.35 96.94-24.85L96.94-24.85 98.39-24.95ZM125.79 0.35Q122.19 0.35 119.54-1.2 116.89-2.75 115.46-5.58 114.04-8.4 114.04-12.2L114.04-12.2Q114.04-16 115.51-18.88 116.99-21.75 119.66-23.35 122.34-24.95 125.94-24.95L125.94-24.95Q128.39-24.95 130.74-24.08 133.09-23.2 134.54-21.75L134.54-21.75 133.19-18.75Q129.74-21.55 126.19-21.55L126.19-21.55Q122.44-21.55 120.34-19.1 118.24-16.65 118.24-12.2L118.24-12.2Q118.24-7.8 120.34-5.4 122.44-3 126.19-3L126.19-3Q129.74-3 133.19-5.8L133.19-5.8 134.54-2.8Q132.99-1.35 130.64-0.5 128.29 0.35 125.79 0.35L125.79 0.35ZM149.54 0.35Q146.09 0.35 143.46-1.2 140.84-2.75 139.41-5.63 137.99-8.5 137.99-12.3L137.99-12.3Q137.99-16.1 139.41-18.98 140.84-21.85 143.46-23.4 146.09-24.95 149.54-24.95L149.54-24.95Q152.99-24.95 155.64-23.4 158.29-21.85 159.71-18.98 161.14-16.1 161.14-12.3L161.14-12.3Q161.14-8.5 159.71-5.63 158.29-2.75 155.64-1.2 152.99 0.35 149.54 0.35L149.54 0.35ZM149.54-3Q153.14-3 155.06-5.38 156.99-7.75 156.99-12.3L156.99-12.3Q156.99-16.75 155.04-19.18 153.09-21.6 149.54-21.6L149.54-21.6Q145.99-21.6 144.04-19.18 142.09-16.75 142.09-12.3L142.09-12.3Q142.09-7.8 144.01-5.4 145.94-3 149.54-3L149.54-3ZM194.28-24.95Q202.38-24.95 202.38-15.3L202.38-15.3 202.38 0 198.33 0 198.33-15.1Q198.33-18.45 197.16-20 195.98-21.55 193.38-21.55L193.38-21.55Q190.33-21.55 188.58-19.5 186.83-17.45 186.83-13.9L186.83-13.9 186.83 0 182.78 0 182.78-15.1Q182.78-18.5 181.58-20.03 180.38-21.55 177.78-21.55L177.78-21.55Q174.73-21.55 172.98-19.5 171.23-17.45 171.23-13.9L171.23-13.9 171.23 0 167.18 0 167.18-24.35 171.18-24.35 171.18-20.5Q172.28-22.65 174.23-23.8 176.18-24.95 178.73-24.95L178.73-24.95Q184.38-24.95 186.18-20.15L186.18-20.15Q187.23-22.4 189.38-23.68 191.53-24.95 194.28-24.95L194.28-24.95ZM222.03-24.95Q225.23-24.95 227.68-23.35 230.13-21.75 231.48-18.88 232.83-16 232.83-12.2L232.83-12.2Q232.83-8.4 231.48-5.58 230.13-2.75 227.71-1.2 225.28 0.35 222.03 0.35L222.03 0.35Q219.18 0.35 217.06-0.9 214.93-2.15 213.83-4.45L213.83-4.45 213.83 9 209.78 9 209.78-24.35 213.83-24.35 213.83-20.15Q214.93-22.45 217.06-23.7 219.18-24.95 222.03-24.95L222.03-24.95ZM221.23-3Q224.78-3 226.73-5.4 228.68-7.8 228.68-12.2L228.68-12.2Q228.68-16.6 226.73-19.07 224.78-21.55 221.23-21.55L221.23-21.55Q217.68-21.55 215.76-19.15 213.83-16.75 213.83-12.3L213.83-12.3Q213.83-7.85 215.76-5.43 217.68-3 221.23-3L221.23-3ZM248.78-24.95Q253.43-24.95 255.7-22.58 257.98-20.2 257.98-15.35L257.98-15.35 257.98 0 254.03 0 254.03-4.15Q253.08-2 251.13-0.83 249.18 0.35 246.63 0.35L246.63 0.35Q244.28 0.35 242.3-0.6 240.33-1.55 239.18-3.25 238.03-4.95 238.03-7L238.03-7Q238.03-9.75 239.43-11.28 240.83-12.8 244.03-13.48 247.23-14.15 252.93-14.15L252.93-14.15 254.03-14.15 254.03-15.8Q254.03-18.85 252.78-20.23 251.53-21.6 248.73-21.6L248.73-21.6Q244.53-21.6 240.38-19L240.38-19 239.03-21.95Q240.93-23.3 243.6-24.13 246.28-24.95 248.78-24.95L248.78-24.95ZM247.18-2.85Q250.18-2.85 252.1-4.88 254.03-6.9 254.03-10.1L254.03-10.1 254.03-11.55 253.13-11.55Q248.73-11.55 246.43-11.18 244.13-10.8 243.15-9.93 242.18-9.05 242.18-7.35L242.18-7.35Q242.18-5.4 243.6-4.13 245.03-2.85 247.18-2.85L247.18-2.85ZM277.63-24.95Q286.38-24.95 286.38-15.3L286.38-15.3 286.38 0 282.33 0 282.33-15.05Q282.33-18.45 281-20 279.68-21.55 276.78-21.55L276.78-21.55Q273.43-21.55 271.43-19.5 269.43-17.45 269.43-13.95L269.43-13.95 269.43 0 265.38 0 265.38-24.35 269.38-24.35 269.38-20.35Q270.58-22.6 272.73-23.78 274.88-24.95 277.63-24.95L277.63-24.95ZM302.97-4.4L311.22-24.3 315.27-24.3 300.87 9 296.72 9 300.82-0.3 290.52-24.3 294.82-24.3 302.97-4.4Z" opacity="1" transform="matrix(1,0,0,1,0,0)" fill="#31c48d" class="undefined-text-0" data-fill-palette-color="primary" id="text-0"></path></svg></g></svg></g></svg></g></svg></g></svg></g></svg></g></svg></g></svg></g><defs></defs></svg><rect width="395.52" height="247.2" fill="none" stroke="none" visibility="hidden"></rect></g></svg></g></svg>